<svg width="40" height="40" viewBox="0 0 40 40" fill="none" xmlns="http://www.w3.org/2000/svg">
<path d="M1 40H39C39.5523 40 40 39.5523 40 39V15C40 14.4477 39.5523 14 39 14H34V5C34 4.44771 33.5523 4 33 4H28V3C28 1.34315 26.6569 4.76837e-07 25 4.76837e-07L15 0C13.3431 4.76837e-07 12 1.34315 12 3V4H7C6.44771 4 6 4.44772 6 5V14H1C0.447715 14 0 14.4477 0 15V39C0 39.5523 0.447715 40 1 40ZM34 16H38V38H34V16ZM23 38H17V31H23V38ZM14 3C14 2.44772 14.4477 2 15 2H25C25.5523 2 26 2.44772 26 3V13C26 13.5523 25.5523 14 25 14H15C14.4477 14 14 13.5523 14 13V3ZM8 6H12V13C12 14.6569 13.3431 16 15 16H25C26.6569 16 28 14.6569 28 13V6H32V38H25V30C25 29.4477 24.5523 29 24 29H16C15.4477 29 15 29.4477 15 30V38H8V6ZM2 16H6V38H2V16Z" fill="#03A5CE"/>
<path d="M17 9H19V11C19 11.5523 19.4477 12 20 12C20.5523 12 21 11.5523 21 11V9H23C23.5523 9 24 8.55228 24 8C24 7.44771 23.5523 7 23 7H21V5C21 4.44771 20.5523 4 20 4C19.4477 4 19 4.44772 19 5V7H17C16.4477 7 16 7.44772 16 8C16 8.55229 16.4477 9 17 9Z" fill="#F77D1F"/>
<path d="M13 21H15C15.5523 21 16 20.5523 16 20C16 19.4477 15.5523 19 15 19H13C12.4477 19 12 19.4477 12 20C12 20.5523 12.4477 21 13 21Z" fill="#F77D1F"/>
<path d="M16 25C16 24.4477 15.5523 24 15 24H13C12.4477 24 12 24.4477 12 25C12 25.5523 12.4477 26 13 26H15C15.5523 26 16 25.5523 16 25Z" fill="#F77D1F"/>
<path d="M19 21H21C21.5523 21 22 20.5523 22 20C22 19.4477 21.5523 19 21 19H19C18.4477 19 18 19.4477 18 20C18 20.5523 18.4477 21 19 21Z" fill="#F77D1F"/>
<path d="M19 26H21C21.5523 26 22 25.5523 22 25C22 24.4477 21.5523 24 21 24H19C18.4477 24 18 24.4477 18 25C18 25.5523 18.4477 26 19 26Z" fill="#F77D1F"/>
<path d="M25 21H27C27.5523 21 28 20.5523 28 20C28 19.4477 27.5523 19 27 19H25C24.4477 19 24 19.4477 24 20C24 20.5523 24.4477 21 25 21Z" fill="#F77D1F"/>
<path d="M25 26H27C27.5523 26 28 25.5523 28 25C28 24.4477 27.5523 24 27 24H25C24.4477 24 24 24.4477 24 25C24 25.5523 24.4477 26 25 26Z" fill="#F77D1F"/>
</svg>
