<svg width="44" height="52" viewBox="0 0 44 52" fill="none" xmlns="http://www.w3.org/2000/svg">
<path d="M21.8637 28.6103C15.2608 28.3951 13.6772 22.7417 13.3382 20.9165C12.7026 20.7692 12.1362 20.4094 11.7327 19.8967C11.2721 19.2619 11.0584 18.4811 11.1316 17.7003C11.0258 16.8495 11.2854 15.9937 11.8462 15.3451C12.0027 15.1846 12.1826 15.0489 12.3799 14.9424C11.1527 12.9611 10.5482 10.6571 10.6448 8.32846C11.4091 2.86686 15.8106 2.33534 17.1892 2.30459C17.8236 1.56663 18.6168 0.981723 19.5092 0.593631C21.181 -0.0807056 23.0288 -0.183661 24.7651 0.300783C28.1783 1.19177 30.4544 2.90054 31.5343 5.38022C33.0717 8.90464 31.7232 12.9613 30.9486 14.7828C31.244 14.8788 31.5163 15.0351 31.7481 15.2419C32.3874 15.8909 32.6892 16.8 32.5651 17.7025C32.6391 18.4833 32.4256 19.2642 31.9648 19.8989C31.5609 20.4115 30.9943 20.7712 30.3585 20.9187C30.0195 22.7417 28.4396 28.3951 21.8637 28.6103ZM13.6033 16.1131C13.3436 16.101 13.0896 16.1914 12.896 16.3649C12.6254 16.744 12.5176 17.2156 12.5966 17.6747C12.5997 17.7235 12.5979 17.7726 12.5915 17.8211C12.5517 18.2413 12.6602 18.6622 12.8982 19.0108C13.1981 19.3458 13.6204 19.5459 14.0696 19.5657C14.4147 19.6065 14.6836 19.8843 14.7131 20.2305C14.7373 20.5029 15.3867 26.9345 21.8652 27.1468C28.3079 26.9345 28.9602 20.5029 28.9843 20.229C29.0146 19.8834 29.2833 19.6064 29.6279 19.5657C30.0771 19.546 30.4994 19.3459 30.7993 19.0108C31.0383 18.6605 31.1469 18.2374 31.106 17.8152C31.0999 17.7682 31.0982 17.7206 31.1009 17.6732C31.1809 17.1988 31.0614 16.7124 30.7707 16.329C30.542 16.1606 30.2575 16.0862 29.9756 16.1211C29.6992 16.1702 29.419 16.0568 29.2545 15.8292C29.0899 15.6017 29.07 15.3001 29.2032 15.053C29.2303 15.0017 31.9121 9.91203 30.1887 5.9564C29.2962 3.91232 27.348 2.48542 24.3969 1.71524C22.9785 1.31383 21.4673 1.39102 20.0971 1.93487C19.3177 2.2707 18.6383 2.80234 18.1248 3.47817C17.9745 3.68265 17.7282 3.79371 17.4754 3.77102C17.2858 3.75565 12.8031 3.46573 12.1002 8.47708C12.1002 8.47708 11.8974 12.4635 14.2065 14.8795C14.4123 15.0946 14.4673 15.413 14.3456 15.6848C14.2331 15.9644 13.9529 16.1392 13.6523 16.1175L13.6033 16.1131Z" fill="#0857DE"/>
<path d="M36.6373 40.9884C36.2412 40.9885 35.9167 40.6735 35.9052 40.2775C35.7683 35.5099 33.9556 34.0098 33.938 33.9952C33.6233 33.7453 33.5667 33.2895 33.8106 32.9702C34.053 32.6534 34.5052 32.5907 34.8246 32.8296C34.9213 32.9029 37.2091 34.6797 37.3695 40.235C37.3809 40.6389 37.0631 40.9757 36.6593 40.9876L36.6373 40.9884Z" fill="#F77D1F"/>
<path d="M36.6409 45.3108C35.0424 45.3112 33.7464 44.0157 33.7461 42.4173C33.7461 40.8183 35.042 39.5226 36.6404 39.5227C38.2386 39.5227 39.5344 40.8186 39.5342 42.417C39.5325 44.0143 38.2382 45.3088 36.6409 45.3108ZM36.6409 40.9869C35.8511 40.9865 35.2106 41.6265 35.2103 42.4163C35.2101 43.206 35.8502 43.8465 36.6399 43.8466C37.4299 43.8466 38.0701 43.2063 38.07 42.4165C38.069 41.6276 37.4298 40.9882 36.6409 40.9869Z" fill="#F77D1F"/>
<path d="M6.56642 40.9885C6.18154 40.9895 5.86162 40.6923 5.8343 40.3083C5.4353 34.6893 8.53142 32.8934 8.6632 32.8195C9.01538 32.6208 9.46198 32.7452 9.66072 33.0973C9.85945 33.4495 9.73505 33.8961 9.38288 34.0949C9.27159 34.1607 6.96689 35.5833 7.29414 40.2051C7.32264 40.6084 7.01879 40.9585 6.61547 40.987L6.56642 40.9885Z" fill="#F77D1F"/>
<path d="M5.08564 46.8502C4.85598 46.8513 4.63913 46.7445 4.49995 46.5618C4.14258 46.0924 3.87931 45.5585 3.72464 44.9892C3.01729 42.6814 4.30052 40.2345 6.60113 39.5042C7.66025 39.2063 8.79464 39.3467 9.74924 39.8937C11.4451 40.8735 12.3554 42.8025 12.0334 44.7344C11.9671 45.1333 11.59 45.4029 11.1911 45.3366C10.7923 45.2703 10.5227 44.8932 10.589 44.4943C10.809 43.1709 10.1899 41.8489 9.03249 41.1705C8.4167 40.8149 7.68382 40.7218 6.99867 40.912C5.47197 41.4226 4.64024 43.0665 5.13323 44.599C5.23917 44.9887 5.41968 45.3542 5.66475 45.6752C5.83293 45.8965 5.86125 46.194 5.73787 46.4431C5.61449 46.6922 5.36069 46.8499 5.08272 46.8502L5.08564 46.8502Z" fill="#F77D1F"/>
<path d="M11.3211 45.348C11.2925 45.348 11.2632 45.348 11.2339 45.3437L10.4088 45.2463C10.0071 45.1986 9.72017 44.8342 9.76788 44.4325C9.81559 44.0308 10.1799 43.7439 10.5816 43.7916L11.4067 43.8897C11.7914 43.9354 12.0738 44.2729 12.0511 44.6596C12.0284 45.0463 11.7084 45.3476 11.3211 45.348Z" fill="#F77D1F"/>
<path d="M5.08573 46.857C4.73093 46.8575 4.42684 46.6035 4.36413 46.2543C4.30143 45.9051 4.49815 45.5612 4.83096 45.4382L5.7095 45.1139C6.08857 44.9723 6.51058 45.1649 6.6521 45.544C6.79362 45.923 6.60105 46.3451 6.22198 46.4866L5.34344 46.8116C5.26096 46.8421 5.17367 46.8575 5.08573 46.857Z" fill="#F77D1F"/>
<path d="M29.8474 16.1308C29.4548 16.1311 29.1318 15.8217 29.1153 15.4294C29.1065 15.2398 28.8796 10.8171 25.5777 10.3917C22.5253 10.7794 19.4483 9.88806 17.0756 7.92887C16.1422 8.63097 13.9912 10.7651 14.4049 15.3167C14.4162 15.7034 14.1247 16.0322 13.7394 16.0673C13.3542 16.1023 13.0081 15.8316 12.9494 15.4492C12.3425 8.77154 16.6305 6.45365 16.8128 6.35848C17.0911 6.21327 17.4309 6.26156 17.6577 6.47854C19.7693 8.39117 22.6102 9.2876 25.4372 8.93334C25.5042 8.92249 25.5723 8.92004 25.64 8.92602C29.362 9.31331 30.499 13.3121 30.5796 15.3687C30.5952 15.772 30.2815 16.1119 29.8782 16.1286L29.8474 16.1308Z" fill="#0857DE"/>
<path d="M42.446 51.2499H1.31708C0.912741 51.2499 0.584961 50.9221 0.584961 50.5177V42.3561C0.595855 36.9851 4.9512 32.636 10.3221 32.6328H11.7278C12.1321 32.6328 12.4599 32.9606 12.4599 33.3649C12.4599 33.7693 12.1321 34.097 11.7278 34.097H10.3221C5.75954 34.0995 2.05929 37.7935 2.0492 42.3561V49.7856H41.7139V42.3561C41.7087 37.7969 38.014 34.1023 33.4549 34.097H31.9482C31.5438 34.097 31.2161 33.7693 31.2161 33.3649C31.2161 32.9606 31.5438 32.6328 31.9482 32.6328H33.4549C38.8217 32.6405 43.1705 36.9892 43.1781 42.3561L43.1781 50.5177C43.1781 50.9221 42.8504 51.2499 42.446 51.2499Z" fill="#0857DE"/>
<path d="M24.3279 51.2496C24.1146 51.2496 23.912 51.1567 23.7729 50.995C23.6338 50.8335 23.5721 50.6193 23.6039 50.4084L26.5668 30.8001C26.5985 30.5902 26.7198 30.4044 26.8992 30.2909C27.0786 30.1774 27.2984 30.1474 27.5017 30.2086L32.6148 31.7497C32.8209 31.8118 32.9892 31.9615 33.0749 32.159C33.1607 32.3564 33.1552 32.5816 33.0599 32.7746L31.0276 36.8525L32.2063 38.1755C32.4208 38.418 32.4506 38.7726 32.2795 39.0474L24.9502 50.9026C24.8169 51.1182 24.5815 51.2495 24.3279 51.2496ZM27.889 31.8544L25.5865 47.0919L30.7501 38.7458L29.6058 37.4609C29.4066 37.2376 29.3634 36.9155 29.4967 36.6475L31.3621 32.9035L27.889 31.8544Z" fill="#0857DE"/>
<path d="M19.3506 51.2497C19.0968 51.2498 18.861 51.1185 18.7275 50.9027L11.3961 39.0497C11.225 38.7748 11.2548 38.4202 11.4693 38.1777L12.648 36.8548L10.6156 32.7769C10.5204 32.5838 10.5149 32.3587 10.6006 32.1612C10.6864 31.9638 10.8547 31.8141 11.0608 31.7519L16.1739 30.2108C16.3771 30.1499 16.5967 30.18 16.7759 30.2935C16.9551 30.407 17.0763 30.5926 17.1081 30.8023L20.0724 50.4107C20.1034 50.6208 20.0417 50.834 19.9031 50.9951C19.7646 51.1561 19.563 51.249 19.3506 51.2497ZM12.9284 38.7436L18.092 47.0898L15.7895 31.8544L12.3164 32.9013L14.1811 36.6454C14.3146 36.9132 14.2717 37.2353 14.0727 37.4588L12.9284 38.7436Z" fill="#0857DE"/>
<path d="M21.8935 37.5995C20.3105 37.5984 18.729 37.5025 17.1574 37.3125C16.8921 37.2882 16.661 37.1216 16.5539 36.8777C16.4468 36.6337 16.4808 36.3508 16.6425 36.1391C16.8042 35.9274 17.0681 35.8202 17.3317 35.8592C20.3238 36.2272 23.3497 36.2272 26.3419 35.8592C26.743 35.8086 27.1092 36.0928 27.1597 36.494C27.2103 36.8951 26.9261 37.2613 26.5249 37.3119C24.9886 37.5046 23.4418 37.6007 21.8935 37.5995Z" fill="#0857DE"/>
<path d="M27.2924 31.6415C27.0614 31.6406 26.8442 31.5307 26.7068 31.345C25.6188 29.8742 25.4219 26.9589 25.4036 26.6316C25.3803 26.2281 25.6883 25.8821 26.0918 25.8585C26.4937 25.8396 26.8371 26.1453 26.8649 26.5467C26.9096 27.3169 27.1804 29.5242 27.8833 30.4745C28.0471 30.6963 28.0723 30.9913 27.9486 31.2378C27.825 31.4842 27.5733 31.6403 27.2976 31.6415H27.2924Z" fill="#0857DE"/>
<path d="M16.3861 31.6414C16.1104 31.6402 15.8587 31.4842 15.735 31.2377C15.6113 30.9913 15.6366 30.6962 15.8004 30.4744C16.5047 29.5227 16.7748 27.3161 16.8195 26.5466C16.843 26.1423 17.1897 25.8335 17.5941 25.857C17.9984 25.8804 18.3072 26.2272 18.2837 26.6315C18.2654 26.9588 18.0641 29.8741 16.9806 31.3449C16.8412 31.5331 16.6203 31.6434 16.3861 31.6414Z" fill="#0857DE"/>
</svg>
