<svg width="52" height="52" viewBox="0 0 52 52" fill="none" xmlns="http://www.w3.org/2000/svg">
<path d="M29.4204 10.3836C29.4204 4.65915 24.7612 0 19.0367 0C13.3122 0 8.65306 4.65915 8.65306 10.3836C8.65306 10.6737 8.6632 10.9669 8.68178 11.2641C8.73257 12.4382 10.5028 12.3292 10.409 11.1575C10.3927 10.8939 10.382 10.6353 10.382 10.3834C10.382 5.59436 14.2458 1.73035 19.035 1.73035C23.8242 1.73035 27.6881 5.59412 27.6881 10.3834C27.6881 11.4547 27.5416 12.6217 27.2655 13.8328C27.1206 13.8492 26.9636 13.8743 26.8211 13.9123V12.9793C26.8228 12.5014 26.4372 12.1124 25.9591 12.1107H24.2286C22.2716 12.1107 21.5836 10.1113 21.5836 10.1113C21.4622 9.74216 21.1099 9.50003 20.7217 9.51807C20.3641 9.53445 20.0544 9.77115 19.9426 10.1113C19.9426 10.1113 19.2517 12.1107 17.3044 12.1107H12.1109C11.6328 12.1124 11.2471 12.5013 11.249 12.9793V13.9055C9.51866 13.4847 7.78775 14.6995 7.78775 16.4271C7.78775 18.9575 9.5688 20.5408 11.6842 20.7435C12.1225 22.0014 12.8749 23.1066 13.8449 23.9748V28.5565C13.8448 28.6494 13.8596 28.7419 13.8889 28.8302C14.6949 30.819 16.59 32.0176 19.0385 32.0176C21.4869 32.0176 23.3913 30.8112 24.1863 28.8302C24.2161 28.7419 24.2316 28.6494 24.2319 28.5565V23.9781C25.202 23.1112 25.9566 22.0061 26.3935 20.7484C28.3929 20.5453 30.2857 19.0163 30.2857 16.4261C30.253 15.4272 29.6972 14.6507 28.9573 14.2165C29.2548 12.9091 29.4204 11.6104 29.4204 10.3836ZM38.9421 38.0732H38.0295C37.5869 32.2628 32.7493 27.6896 26.8244 27.6896C25.6548 27.6733 25.6548 29.4363 26.8244 29.4203C31.8203 29.4203 35.8662 33.1971 36.2989 38.0734C36.6911 38.6125 40.3952 38.0732 38.9421 38.0732ZM20.769 12.121C21.3191 12.8611 22.4288 13.8415 24.2302 13.8415H25.0921V18.1731C25.0921 21.5437 22.4073 24.2285 19.0367 24.2285C15.6661 24.2285 12.9812 21.5436 12.9812 18.1731V13.8415H17.3061C19.1103 13.8415 20.1477 12.9003 20.769 12.121ZM26.7873 18.9099C26.856 17.9076 26.8228 16.8907 26.8228 15.8492C27.4664 15.185 28.5517 15.7555 28.5483 16.4611C28.5421 17.7637 27.7548 18.6257 26.7873 18.9099ZM11.2879 18.9099C10.3203 18.6257 9.52684 17.7589 9.52684 16.4611C9.52684 15.6071 10.7344 15.2708 11.2507 15.8459C11.2446 16.8449 11.2356 17.961 11.2879 18.9099ZM15.5755 25.1513C16.6177 25.6679 17.7929 25.9591 19.0367 25.9591C20.2816 25.9591 21.4559 25.6674 22.4996 25.1513V28.3455C22.4996 28.3455 21.7803 30.2874 19.0384 30.2874C16.2964 30.2874 15.5755 28.3455 15.5755 28.3455L15.5755 25.1513ZM11.2489 27.6898C5.032 27.6898 0 32.7217 0 38.9387V51.0529C5.16176e-05 51.5308 0.387429 51.9182 0.865303 51.9182H6.94947H31.178H37.208C37.6859 51.9182 38.0733 51.5308 38.0734 51.0529V42.3998C38.0897 41.2297 36.3262 41.2297 36.3427 42.3998V44.9974H32.0179V42.3982C32.0179 41.1733 30.2873 41.271 30.2873 42.3982V50.1876H7.78938V42.3982C7.78938 41.2307 6.05877 41.2281 6.05877 42.3982V44.9974H1.73057V38.9386C1.73057 33.6505 5.96079 29.4203 11.2489 29.4203C12.4186 29.4366 12.4186 27.6738 11.2489 27.6898ZM1.73059 46.7298H6.05879V50.1877H1.73059L1.73059 46.7298ZM32.0179 46.7298H36.3427V50.1877H32.0179V46.7298Z" fill="#320257"/>
<path d="M36.3416 4.32828V5.19022H35.4797C34.0565 5.19022 32.8804 6.36804 32.8804 7.79123V13.8449C32.8804 18.8116 36.6825 22.8828 41.5352 23.3193V35.4809C41.5352 36.9338 40.3957 38.0734 38.9426 38.0734H38.03L36.2994 38.0735H27.5652C27.1779 36.589 25.8343 35.4809 24.2324 35.4809C22.3311 35.4809 20.7695 37.034 20.7695 38.9355C20.7695 40.8368 22.3311 42.3983 24.2324 42.3983C25.8328 42.3983 27.1748 41.288 27.5635 39.804H38.9426C41.3245 39.804 43.2674 37.8628 43.2674 35.4809V23.3194C48.1174 22.8796 51.9222 18.8094 51.9222 13.845V7.79129C51.9222 6.36813 50.7443 5.19037 49.3212 5.19037H48.4592V4.32843C48.4592 3.15091 46.7286 3.15683 46.7286 4.32843V7.79129C46.7535 8.91983 48.4343 8.91983 48.4592 7.79129V6.92258H49.3212C49.8155 6.92258 50.1916 7.29697 50.1916 7.79129V13.845C50.1916 18.1744 46.7264 21.6328 42.397 21.6328C38.0677 21.6328 34.611 18.1744 34.611 13.845V7.79129C34.611 7.29697 34.9853 6.92258 35.4797 6.92258H36.3416V7.79129C36.3416 8.94611 38.0739 8.94611 38.0739 7.79129V4.32843C38.0739 3.18253 36.3416 3.14029 36.3416 4.32828ZM24.2324 37.2049C25.1984 37.2049 25.963 37.9695 25.963 38.9355C25.963 39.9016 25.1984 40.6679 24.2324 40.6679C23.2664 40.6679 22.5001 39.9016 22.5001 38.9355C22.5001 37.9695 23.2664 37.2049 24.2324 37.2049Z" fill="#F77D1F"/>
</svg>
