<svg width="274" height="223" viewBox="0 0 274 223" fill="none" xmlns="http://www.w3.org/2000/svg">
<g opacity="0.399994">
<path d="M274 147.698C274 155.253 267.875 161.378 260.32 161.378C252.765 161.378 246.641 155.253 246.641 147.698C246.641 140.143 252.765 134.018 260.32 134.018C267.875 134.018 274 140.143 274 147.698Z" fill="#DDF1F3"/>
</g>
<g opacity="0.399994">
<path d="M35.2113 31.3425C46.7372 31.3425 56.0807 40.686 56.0807 52.212C56.0807 63.7377 46.7372 73.0814 35.2113 73.0814C23.6855 73.0814 14.3418 63.7377 14.3418 52.212C14.3418 40.686 23.6855 31.3425 35.2113 31.3425Z" fill="#C5E9EC"/>
</g>
<g opacity="0.399994">
<path d="M117.554 17.3735C119.706 22.9837 116.902 29.2757 111.292 31.4271C105.682 33.5788 99.3902 30.7754 97.2386 25.1654C95.0869 19.5554 97.8905 13.2634 103.5 11.1119C109.11 8.96013 115.402 11.7637 117.554 17.3735Z" fill="#DBF5F7"/>
</g>
<path d="M91.8208 26.6479C91.1481 26.6479 90.4685 26.5948 89.8018 26.4902L89.8661 26.0807C90.5116 26.1819 91.1694 26.2333 91.8215 26.2333L91.8972 26.2331L91.8999 26.6477L91.8208 26.6479ZM93.9959 26.4645L93.9266 26.0557C94.5927 25.9428 95.2572 25.774 95.9012 25.5544L96.0349 25.9468C95.3699 26.1736 94.6839 26.3477 93.9959 26.4645ZM87.7565 25.9983C87.0909 25.7806 86.438 25.5075 85.8158 25.1865L86.0059 24.8182C86.6085 25.1289 87.2409 25.3936 87.8853 25.6043L87.7565 25.9983ZM97.9659 25.1123L97.7715 24.7462C98.3717 24.4278 98.9492 24.0589 99.488 23.6498L99.7387 23.9801C99.182 24.4026 98.5856 24.7835 97.9659 25.1123ZM84.0298 24.0759C83.4663 23.6594 82.9328 23.1944 82.4445 22.6938L82.7413 22.4043C83.2141 22.889 83.7304 23.3392 84.2762 23.7425L84.0298 24.0759ZM101.306 22.5766L101.005 22.291C101.471 21.8002 101.901 21.2669 102.284 20.7059L102.626 20.9396C102.232 21.5186 101.787 22.0695 101.306 22.5766ZM81.1021 21.0739C80.7012 20.5015 80.3435 19.8907 80.0385 19.2591L80.412 19.0789C80.707 19.6906 81.0536 20.2817 81.4418 20.8361L81.1021 21.0739ZM103.668 19.1122L103.293 18.9364C103.581 18.3219 103.821 17.68 104.007 17.0284L104.406 17.1422C104.214 17.8149 103.966 18.4777 103.668 19.1122ZM79.2774 17.2982C79.076 16.6257 78.928 15.9335 78.8378 15.2407L79.2487 15.1871C79.3363 15.8579 79.4796 16.5282 79.6746 17.1793L79.2774 17.2982ZM104.819 15.0795L104.408 15.0309C104.465 14.5426 104.495 14.0459 104.495 13.5549C104.495 13.3689 104.49 13.1805 104.482 12.995L104.896 12.9766C104.905 13.1681 104.909 13.3628 104.909 13.5549C104.909 14.0622 104.879 14.5751 104.819 15.0795ZM79.1497 13.152L78.7354 13.1386C78.7581 12.4393 78.838 11.736 78.9731 11.048L79.3799 11.128C79.2491 11.7941 79.1718 12.4749 79.1497 13.152ZM104.227 10.9741C104.088 10.3133 103.894 9.65578 103.651 9.01984L104.038 8.87126C104.289 9.52792 104.49 10.2068 104.633 10.8892L104.227 10.9741ZM79.9314 9.16676L79.5426 9.02299C79.7855 8.36633 80.0832 7.72443 80.4276 7.1147L80.7886 7.31866C80.4549 7.90916 80.1667 8.53083 79.9314 9.16676ZM103.613 8.923C103.364 8.28956 103.064 7.67369 102.72 7.09231L103.077 6.88122C103.432 7.4815 103.742 8.11743 103.999 8.77144L103.613 8.923ZM81.9291 5.63107L81.6053 5.37222C82.0432 4.82484 82.5282 4.30963 83.0473 3.84101L83.3252 4.14861C82.8228 4.60247 82.3529 5.1011 81.9291 5.63107ZM101.545 5.42877C101.111 4.90924 100.63 4.42073 100.117 3.97699L100.388 3.66341C100.918 4.12175 101.414 4.62635 101.863 5.16295L101.545 5.42877ZM84.9421 2.91058L84.7176 2.56201C85.3044 2.18394 85.9283 1.84964 86.5717 1.56873L86.7375 1.94863C86.1145 2.22075 85.5104 2.54444 84.9421 2.91058ZM98.4743 2.77311C97.8971 2.41758 97.2867 2.10583 96.6599 1.84665L96.8186 1.46343C97.4656 1.73124 98.0959 2.0531 98.6917 2.42024L98.4743 2.77311ZM88.6637 1.28335L88.5601 0.881891C89.2393 0.706284 89.9367 0.585233 90.6328 0.521557L90.6705 0.934292C89.9966 0.995978 89.3215 1.11338 88.6637 1.28335ZM94.7212 1.221C94.0609 1.06496 93.3834 0.961487 92.7075 0.913564L92.7368 0.5C93.4348 0.549581 94.1346 0.656371 94.8166 0.817552L94.7212 1.221Z" fill="#07919D"/>
<path d="M222.423 171.527L222.416 171.113C223.103 171.101 223.796 171.073 224.477 171.029L224.503 171.443C223.816 171.487 223.116 171.515 222.423 171.527ZM220.341 171.515C219.651 171.495 218.951 171.459 218.263 171.407L218.294 170.994C218.976 171.045 219.669 171.081 220.353 171.101L220.341 171.515ZM226.577 171.262L226.531 170.85C227.212 170.774 227.899 170.681 228.574 170.574L228.64 170.983C227.958 171.092 227.264 171.185 226.577 171.262ZM216.191 171.201C215.507 171.117 214.814 171.016 214.132 170.899L214.202 170.49C214.878 170.606 215.564 170.707 216.242 170.79L216.191 171.201ZM230.687 170.608L230.603 170.202C231.275 170.062 231.951 169.905 232.611 169.735L232.715 170.136C232.048 170.308 231.366 170.467 230.687 170.608ZM212.089 170.5C211.414 170.351 210.734 170.184 210.067 170.004L210.175 169.604C210.835 169.782 211.509 169.948 212.178 170.095L212.089 170.5ZM234.718 169.569L234.595 169.173C235.25 168.971 235.908 168.75 236.551 168.518L236.692 168.907C236.043 169.142 235.379 169.365 234.718 169.569ZM208.071 169.413C207.413 169.201 206.75 168.97 206.1 168.726L206.246 168.338C206.89 168.58 207.547 168.808 208.198 169.018L208.071 169.413ZM238.627 168.155L238.468 167.772C239.096 167.51 239.729 167.23 240.348 166.937L240.525 167.311C239.9 167.607 239.262 167.891 238.627 168.155ZM204.165 167.947C203.528 167.673 202.891 167.38 202.269 167.077L202.451 166.704C203.067 167.005 203.698 167.295 204.328 167.566L204.165 167.947ZM242.383 166.379L242.188 166.013C242.791 165.692 243.395 165.353 243.983 165.004L244.194 165.36C243.601 165.713 242.991 166.056 242.383 166.379ZM200.418 166.118C199.812 165.786 199.205 165.435 198.614 165.073L198.83 164.72C199.416 165.078 200.017 165.426 200.617 165.754L200.418 166.118ZM245.957 164.257L245.729 163.91C246.301 163.533 246.871 163.138 247.422 162.736L247.666 163.071C247.11 163.477 246.535 163.875 245.957 164.257ZM196.862 163.945C196.291 163.559 195.72 163.152 195.165 162.737L195.413 162.405C195.963 162.816 196.529 163.219 197.094 163.602L196.862 163.945ZM249.318 161.807L249.059 161.483C249.592 161.055 250.122 160.608 250.635 160.155L250.91 160.466C250.392 160.923 249.856 161.374 249.318 161.807ZM193.527 161.45C192.993 161.01 192.463 160.551 191.951 160.088L192.23 159.781C192.737 160.24 193.261 160.694 193.79 161.13L193.527 161.45ZM252.437 159.052L252.148 158.755C252.64 158.278 253.126 157.783 253.595 157.284L253.897 157.568C253.424 158.072 252.933 158.571 252.437 159.052ZM190.442 158.654C189.951 158.165 189.466 157.66 189.001 157.152L189.307 156.872C189.768 157.375 190.248 157.876 190.734 158.36L190.442 158.654ZM255.286 156.016L254.971 155.747C255.417 155.225 255.855 154.687 256.274 154.147L256.601 154.402C256.178 154.946 255.736 155.49 255.286 156.016ZM187.632 155.584C187.19 155.052 186.755 154.504 186.339 153.954L186.67 153.704C187.082 154.249 187.513 154.792 187.951 155.319L187.632 155.584ZM257.84 152.726L257.501 152.488C257.896 151.927 258.282 151.349 258.649 150.772L258.998 150.995C258.628 151.577 258.238 152.16 257.84 152.726ZM185.124 152.266C184.734 151.696 184.353 151.11 183.99 150.523L184.343 150.305C184.702 150.887 185.08 151.467 185.466 152.031L185.124 152.266ZM260.074 149.21L259.715 149.004C260.054 148.41 260.384 147.799 260.696 147.187L261.065 147.376C260.75 147.993 260.417 148.61 260.074 149.21ZM182.939 148.729C182.604 148.125 182.279 147.506 181.974 146.888L182.345 146.705C182.648 147.316 182.969 147.93 183.301 148.528L182.939 148.729ZM261.969 145.496L261.591 145.325C261.874 144.699 262.145 144.059 262.397 143.423L262.782 143.575C262.528 144.217 262.255 144.863 261.969 145.496ZM181.097 145.005C180.82 144.372 180.555 143.725 180.31 143.083L180.697 142.935C180.94 143.571 181.203 144.212 181.476 144.839L181.097 145.005ZM263.504 141.617L263.112 141.483C263.333 140.837 263.542 140.175 263.732 139.517L264.13 139.632C263.938 140.296 263.727 140.964 263.504 141.617ZM179.613 141.121C179.397 140.463 179.194 139.792 179.011 139.128L179.41 139.018C179.592 139.676 179.793 140.34 180.007 140.991L179.613 141.121ZM264.662 137.619L264.259 137.523C264.418 136.859 264.563 136.18 264.69 135.506L265.098 135.583C264.969 136.264 264.822 136.949 264.662 137.619ZM178.503 137.109C178.351 136.438 178.213 135.751 178.092 135.068L178.5 134.996C178.62 135.672 178.757 136.352 178.907 137.018L178.503 137.109ZM265.436 133.53L265.026 133.472C265.121 132.796 265.202 132.107 265.266 131.423L265.678 131.462C265.614 132.152 265.532 132.848 265.436 133.53ZM177.777 133.011C177.689 132.327 177.616 131.631 177.56 130.94L177.973 130.907C178.029 131.591 178.101 132.281 178.188 132.958L177.777 133.011ZM265.823 129.385L265.409 129.366C265.441 128.685 265.457 127.992 265.457 127.305H265.871C265.871 127.998 265.855 128.698 265.823 129.385ZM177.439 128.862C177.422 128.348 177.413 127.824 177.413 127.305C177.413 127.13 177.414 126.955 177.416 126.78L177.83 126.786C177.828 126.958 177.827 127.131 177.827 127.305C177.827 127.819 177.836 128.338 177.854 128.848L177.439 128.862ZM265.445 126.286C265.429 125.6 265.397 124.907 265.35 124.226L265.764 124.197C265.811 124.885 265.844 125.584 265.859 126.276L265.445 126.286ZM177.902 124.724L177.488 124.7C177.528 124.009 177.585 123.31 177.657 122.626L178.07 122.669C177.998 123.347 177.942 124.039 177.902 124.724ZM265.159 122.172C265.08 121.494 264.984 120.807 264.872 120.131L265.281 120.063C265.394 120.746 265.491 121.44 265.571 122.125L265.159 122.172ZM178.333 120.624L177.923 120.561C178.028 119.878 178.15 119.188 178.287 118.512L178.693 118.594C178.558 119.264 178.437 119.947 178.333 120.624ZM264.489 118.104C264.346 117.436 264.185 116.762 264.01 116.098L264.411 115.993C264.588 116.662 264.75 117.343 264.894 118.018L264.489 118.104ZM179.149 116.582L178.747 116.481C178.915 115.811 179.102 115.136 179.302 114.475L179.699 114.595C179.501 115.25 179.316 115.918 179.149 116.582ZM263.437 114.118C263.231 113.464 263.007 112.808 262.771 112.166L263.16 112.023C263.398 112.671 263.625 113.334 263.833 113.993L263.437 114.118ZM180.345 112.631L179.954 112.492C180.186 111.839 180.437 111.183 180.699 110.543L181.083 110.7C180.823 111.335 180.575 111.984 180.345 112.631ZM262.015 110.253C261.749 109.626 261.465 108.994 261.169 108.377L261.542 108.198C261.841 108.821 262.129 109.458 262.396 110.092L262.015 110.253ZM181.911 108.808L181.536 108.632C181.827 108.007 182.139 107.378 182.462 106.764L182.829 106.957C182.509 107.565 182.2 108.188 181.911 108.808ZM260.235 106.542C259.911 105.942 259.568 105.341 259.215 104.753L259.57 104.54C259.927 105.133 260.273 105.74 260.6 106.346L260.235 106.542ZM183.832 105.152L183.474 104.942C183.824 104.346 184.194 103.75 184.572 103.17L184.919 103.396C184.544 103.971 184.179 104.562 183.832 105.152ZM258.112 103.014C257.733 102.445 257.335 101.878 256.928 101.327L257.262 101.081C257.672 101.637 258.074 102.21 258.457 102.783L258.112 103.014ZM186.087 101.695L185.751 101.452C186.155 100.893 186.578 100.334 187.009 99.7919L187.333 100.05C186.906 100.587 186.487 101.14 186.087 101.695ZM255.666 99.6973C255.235 99.1663 254.786 98.6383 254.329 98.1279L254.639 97.8517C255.099 98.367 255.553 98.9 255.988 99.4359L255.666 99.6973ZM188.655 98.4659L188.344 98.1929C188.799 97.6724 189.273 97.156 189.751 96.6584L190.05 96.9456C189.576 97.4385 189.107 97.9501 188.655 98.4659ZM252.92 96.6227C252.44 96.1332 251.943 95.6493 251.442 95.1845L251.724 94.8808C252.229 95.3499 252.731 95.8382 253.216 96.3324L252.92 96.6227ZM191.513 95.4928L191.228 95.1918C191.73 94.7166 192.25 94.2468 192.772 93.7961L193.043 94.11C192.525 94.5567 192.01 95.0219 191.513 95.4928ZM249.897 93.8168C249.376 93.3761 248.835 92.9406 248.29 92.5226L248.543 92.1938C249.093 92.6158 249.639 93.0552 250.165 93.5001L249.897 93.8168ZM194.635 92.8008L194.379 92.4745C194.923 92.0488 195.483 91.6299 196.046 91.2298L196.286 91.5676C195.729 91.9641 195.173 92.379 194.635 92.8008ZM246.624 91.3051C246.061 90.9136 245.481 90.5305 244.902 90.1669L245.122 89.8158C245.707 90.183 246.292 90.5695 246.861 90.9648L246.624 91.3051ZM197.993 90.4138L197.769 90.0649C198.35 89.6918 198.947 89.3276 199.544 88.9826L199.752 89.3414C199.161 89.6833 198.569 90.0442 197.993 90.4138ZM243.127 89.1107C242.531 88.7741 241.918 88.4473 241.305 88.1394L241.491 87.7689C242.11 88.08 242.729 88.41 243.331 88.7498L243.127 89.1107ZM201.559 88.3534L201.368 87.9853C201.98 87.6691 202.609 87.3628 203.236 87.0753L203.409 87.452C202.787 87.7371 202.165 88.0402 201.559 88.3534ZM239.438 87.2549C238.812 86.9761 238.17 86.7086 237.531 86.4597L237.681 86.0734C238.326 86.3248 238.974 86.5947 239.607 86.8761L239.438 87.2549ZM205.299 86.6393L205.145 86.2548C205.787 85.9964 206.443 85.7505 207.094 85.5238L207.23 85.9153C206.585 86.1399 205.935 86.3835 205.299 86.6393ZM235.588 85.756C234.938 85.5381 234.275 85.3331 233.617 85.1466L233.73 84.7478C234.395 84.936 235.064 85.1431 235.719 85.363L235.588 85.756ZM209.193 85.2837L209.076 84.8861C209.737 84.6904 210.413 84.5077 211.086 84.3432L211.184 84.7458C210.518 84.9088 209.849 85.0899 209.193 85.2837ZM231.621 84.6314C230.954 84.4762 230.275 84.3349 229.602 84.2112L229.676 83.8034C230.356 83.9283 231.042 84.0709 231.714 84.2276L231.621 84.6314ZM213.198 84.303L213.119 83.8961C213.797 83.7638 214.487 83.6457 215.171 83.5456L215.231 83.9558C214.554 84.055 213.87 84.1719 213.198 84.303ZM227.565 83.887C226.887 83.7954 226.198 83.7187 225.516 83.659L225.552 83.2461C226.24 83.3063 226.936 83.3837 227.621 83.4763L227.565 83.887ZM217.277 83.7047L217.237 83.2922C217.922 83.2244 218.621 83.1716 219.312 83.1358L219.334 83.5499C218.649 83.5854 217.957 83.6376 217.277 83.7047ZM223.458 83.527C222.855 83.5024 222.245 83.49 221.642 83.49C221.559 83.49 221.478 83.4902 221.396 83.4907L221.393 83.0761C221.476 83.0758 221.56 83.0759 221.642 83.0754C222.25 83.0754 222.867 83.088 223.475 83.1128L223.458 83.527Z" fill="#07919D"/>
<path d="M42.2033 123.032C41.5077 123.028 40.8064 123 40.1191 122.947L40.1507 122.534C40.8283 122.585 41.5198 122.614 42.2058 122.618L42.2033 123.032ZM44.2892 122.971L44.2622 122.557C44.9434 122.513 45.6319 122.443 46.3084 122.351L46.3646 122.762C45.6783 122.856 44.98 122.926 44.2892 122.971ZM38.0459 122.714C37.3593 122.611 36.6689 122.483 35.9945 122.332L36.0851 121.927C36.7499 122.076 37.4301 122.203 38.107 122.304L38.0459 122.714ZM48.4203 122.404L48.3346 121.998C49.0024 121.857 49.6738 121.69 50.3303 121.501L50.4449 121.9C49.7788 122.091 49.0977 122.261 48.4203 122.404ZM33.976 121.804C33.3115 121.604 32.6462 121.377 31.998 121.13L32.1458 120.743C32.7845 120.986 33.4405 121.21 34.0953 121.407L33.976 121.804ZM52.428 121.25L52.2849 120.861C52.9244 120.626 53.564 120.364 54.186 120.083L54.3568 120.461C53.7259 120.746 53.0768 121.011 52.428 121.25ZM30.0745 120.315C29.4467 120.023 28.821 119.703 28.2149 119.365L28.4169 119.003C29.0144 119.336 29.6311 119.651 30.2497 119.94L30.0745 120.315ZM56.2243 119.534L56.0268 119.169C56.6261 118.845 57.2221 118.494 57.798 118.126L58.0212 118.475C57.4368 118.848 56.8322 119.204 56.2243 119.534ZM26.4288 118.283C25.8498 117.904 25.2765 117.498 24.7252 117.077L24.9767 116.747C25.5201 117.162 26.0853 117.562 26.6563 117.937L26.4288 118.283ZM59.738 117.291L59.4904 116.958C60.0383 116.551 60.5783 116.118 61.0956 115.672L61.3662 115.987C60.8415 116.438 60.2936 116.877 59.738 117.291ZM23.1122 115.752C22.5933 115.294 22.0838 114.811 21.5979 114.316L21.8936 114.026C22.3726 114.514 22.8749 114.99 23.3865 115.442L23.1122 115.752ZM62.8975 114.57L62.6055 114.275C63.0899 113.794 63.5633 113.289 64.0122 112.774L64.3246 113.047C63.8693 113.569 63.3892 114.081 62.8975 114.57ZM20.1897 112.777C19.7405 112.249 19.3049 111.698 18.8951 111.141L19.2293 110.895C19.6332 111.445 20.0625 111.987 20.5055 112.508L20.1897 112.777ZM65.6396 111.426L65.3086 111.176C65.72 110.63 66.1168 110.063 66.4878 109.49L66.8359 109.715C66.4594 110.296 66.0571 110.872 65.6396 111.426ZM17.721 109.417C17.3518 108.831 16.9993 108.225 16.6731 107.614L17.0388 107.419C17.3603 108.021 17.7078 108.619 18.0717 109.196L17.721 109.417ZM67.9067 107.923L67.5434 107.723C67.8729 107.123 68.1847 106.505 68.4697 105.884L68.8463 106.057C68.5571 106.687 68.241 107.314 67.9067 107.923ZM15.7576 105.741C15.4762 105.108 15.2144 104.458 14.9794 103.808L15.3694 103.667C15.6009 104.308 15.8589 104.949 16.1363 105.573L15.7576 105.741ZM69.6494 104.129L69.2612 103.983C69.5008 103.344 69.72 102.687 69.9127 102.033L70.3104 102.15C70.115 102.814 69.8925 103.48 69.6494 104.129ZM14.3418 101.821C14.1541 101.154 13.9884 100.471 13.8495 99.7932L14.2556 99.71C14.3925 100.379 14.5557 101.051 14.7409 101.708L14.3418 101.821ZM70.8267 100.128L70.4216 100.04C70.5666 99.3734 70.6891 98.6923 70.7859 98.0157L71.1962 98.0746C71.098 98.7608 70.9737 99.4516 70.8267 100.128ZM13.5042 97.7355C13.4143 97.0496 13.348 96.3509 13.3072 95.6587L13.7211 95.6342C13.7613 96.3167 13.8266 97.0056 13.9153 97.6816L13.5042 97.7355ZM71.4177 96L71.0042 95.9708C71.0521 95.291 71.0765 94.5992 71.0765 93.9153H71.491C71.491 94.6091 71.4665 95.3105 71.4177 96ZM13.6724 93.5775L13.2578 93.5727C13.2658 92.8788 13.2986 92.1777 13.3555 91.4889L13.7685 91.5229C13.7125 92.2021 13.6802 92.8935 13.6724 93.5775ZM71.044 92.5346C71.0115 91.8508 70.9543 91.1613 70.8736 90.485L71.2854 90.436C71.367 91.1219 71.4252 91.8214 71.458 92.515L71.044 92.5346ZM14.0108 89.4807L13.6012 89.4171C13.7075 88.7319 13.84 88.0426 13.9949 87.3682L14.399 87.4609C14.2461 88.1259 14.1156 88.8054 14.0108 89.4807ZM70.5574 88.4529C70.4282 87.7826 70.2729 87.1082 70.0958 86.4487L70.4961 86.3411C70.676 87.0102 70.8335 87.6944 70.9645 88.3745L70.5574 88.4529ZM14.9315 85.4745L14.5351 85.3527C14.7389 84.6893 14.9696 84.0252 15.2207 83.3788L15.607 83.5289C15.3596 84.166 15.1323 84.8205 14.9315 85.4745ZM69.4909 84.4831C69.2668 83.839 69.0164 83.1948 68.7466 82.5685L69.1274 82.4043C69.401 83.0399 69.6552 83.6934 69.8824 84.3467L69.4909 84.4831ZM16.4212 81.6377L16.0466 81.4603C16.3433 80.8341 16.6668 80.2104 17.0082 79.6063L17.3692 79.8103C17.0326 80.4058 16.7137 81.0207 16.4212 81.6377ZM67.8661 80.7117C67.5517 80.1058 67.2113 79.5039 66.8544 78.9225L67.2076 78.7056C67.5698 79.2954 67.915 79.9061 68.2341 80.5209L67.8661 80.7117ZM18.4458 78.0563L18.1003 77.8269C18.4836 77.2498 18.8928 76.6791 19.3167 76.1304L19.6448 76.3837C19.227 76.9247 18.8235 77.4873 18.4458 78.0563ZM65.717 77.2097C65.3192 76.6548 64.8962 76.1073 64.4598 75.5822L64.7787 75.3171C65.2212 75.85 65.6504 76.4053 66.0538 76.9681L65.717 77.2097ZM20.96 74.8011L20.6507 74.525C21.1122 74.0083 21.5984 73.5017 22.0955 73.0192L22.3842 73.3167C21.8941 73.7924 21.4148 74.2919 20.96 74.8011ZM63.0896 74.048C62.6168 73.5549 62.1202 73.0729 61.6134 72.6149L61.8915 72.3075C62.4054 72.7719 62.9092 73.261 63.3887 73.7609L63.0896 74.048ZM23.9103 71.9375L23.6435 71.6203C24.1733 71.1747 24.7262 70.7424 25.287 70.3351L25.5306 70.6708C24.9777 71.0721 24.4327 71.4984 23.9103 71.9375ZM60.0389 71.2906C59.5003 70.8696 58.94 70.4629 58.3734 70.0816L58.6049 69.7377C59.1795 70.1244 59.7479 70.537 60.2943 70.964L60.0389 71.2906ZM27.2366 69.5233L27.0177 69.1713C27.6057 68.8056 28.2143 68.4567 28.8266 68.1342L29.0198 68.501C28.4162 68.8188 27.8161 69.1628 27.2366 69.5233ZM56.6258 68.995C56.0326 68.6549 55.4197 68.3323 54.804 68.0362L54.9838 67.6626C55.6084 67.9631 56.2301 68.2904 56.8319 68.6353L56.6258 68.995ZM30.8714 67.6095L30.7051 67.2298C31.3389 66.9524 31.9907 66.6943 32.6431 66.4632L32.7815 66.8541C32.1386 67.0818 31.4961 67.3361 30.8714 67.6095ZM52.9178 67.2107C52.282 66.9595 51.6289 66.7283 50.9763 66.5237L51.1004 66.1281C51.7625 66.3358 52.4251 66.5703 53.0702 66.8252L52.9178 67.2107ZM34.7437 66.2372L34.6336 65.8375C35.3009 65.6541 35.9841 65.4925 36.6643 65.3571L36.745 65.7637C36.0746 65.8971 35.4012 66.0564 34.7437 66.2372ZM48.9931 65.9793C48.3286 65.8224 47.6499 65.6878 46.9757 65.5792L47.0417 65.1699C47.7257 65.28 48.4142 65.4167 49.0883 65.5757L48.9931 65.9793ZM38.7754 65.4356L38.7238 65.0242C39.4097 64.9384 40.1089 64.8763 40.8018 64.8395L40.8238 65.2534C40.1406 65.2898 39.4515 65.351 38.7754 65.4356ZM44.9347 65.325C44.2557 65.265 43.5647 65.2285 42.881 65.2167L42.8881 64.8021C43.5816 64.8141 44.2825 64.8512 44.9714 64.912L44.9347 65.325Z" fill="#03A9B7"/>
<path d="M158.966 24.1139C155.109 24.1139 151.971 20.9757 151.971 17.1185C151.971 13.2613 155.109 10.1232 158.966 10.1232C162.823 10.1232 165.961 13.2613 165.961 17.1185C165.961 20.9757 162.823 24.1139 158.966 24.1139ZM158.966 10.4342C155.28 10.4342 152.282 13.4327 152.282 17.1185C152.282 20.8044 155.28 23.803 158.966 23.803C162.652 23.803 165.65 20.8044 165.65 17.1185C165.65 13.4327 162.652 10.4342 158.966 10.4342Z" fill="#07919D"/>
<path d="M231.747 49.2249V175.28C231.747 177.904 229.62 180.031 227 180.031H43.8148C41.1906 180.031 39.064 177.904 39.064 175.28V49.2249C39.064 46.6007 41.1906 44.474 43.8148 44.474H227C229.62 44.474 231.747 46.6007 231.747 49.2249Z" fill="white"/>
<path d="M227 180.238H43.815C41.0811 180.238 38.8569 178.014 38.8569 175.28V49.2249C38.8569 46.4909 41.0811 44.2667 43.815 44.2667H227C229.732 44.2667 231.954 46.4909 231.954 49.2249V175.28C231.954 178.014 229.732 180.238 227 180.238ZM43.815 44.6813C41.3098 44.6813 39.2715 46.7196 39.2715 49.2249V175.28C39.2715 177.785 41.3098 179.823 43.815 179.823H227C229.503 179.823 231.54 177.785 231.54 175.28V49.2249C231.54 46.7196 229.503 44.6813 227 44.6813H43.815Z" fill="#320257"/>
<path d="M231.747 49.2249V56.7035H39.064V49.2249C39.064 46.6007 41.1906 44.474 43.8148 44.474H227C229.62 44.474 231.747 46.6007 231.747 49.2249Z" fill="white"/>
<path d="M231.954 56.9108H38.8569V49.2249C38.8569 46.4909 41.0811 44.2667 43.815 44.2667H227C229.732 44.2667 231.954 46.4909 231.954 49.2249V56.9108ZM39.2715 56.4962H231.54V49.2249C231.54 46.7194 229.503 44.6813 227 44.6813H43.815C41.3096 44.6813 39.2715 46.7194 39.2715 49.2249V56.4962Z" fill="#320257"/>
<path d="M51.9738 50.5888C51.9738 51.8099 50.9838 52.7997 49.7629 52.7997C48.5417 52.7997 47.5518 51.8099 47.5518 50.5888C47.5518 49.3677 48.5417 48.3779 49.7629 48.3779C50.9838 48.3779 51.9738 49.3677 51.9738 50.5888Z" fill="#03A9B7"/>
<path d="M58.1921 48.3779C56.9729 48.3779 55.981 49.3697 55.981 50.5888C55.981 51.8079 56.9729 52.7997 58.1921 52.7997C59.4112 52.7997 60.4031 51.8079 60.4031 50.5888C60.4031 49.3697 59.4112 48.3779 58.1921 48.3779Z" fill="#03A9B7"/>
<path d="M66.6213 52.7999C65.4021 52.7999 64.4102 51.8081 64.4102 50.5888C64.4102 49.3697 65.4021 48.3779 66.6213 48.3779C67.8404 48.3779 68.8322 49.3697 68.8322 50.5888C68.8322 51.8081 67.8404 52.7999 66.6213 52.7999ZM66.6213 48.7924C65.6306 48.7924 64.8247 49.5984 64.8247 50.5888C64.8247 51.5794 65.6306 52.3853 66.6213 52.3853C67.6117 52.3853 68.4176 51.5794 68.4176 50.5888C68.4176 49.5984 67.6117 48.7924 66.6213 48.7924Z" fill="#03A9B7"/>
<path d="M121.023 53.0501H79.9302C78.573 53.0501 77.4688 51.9461 77.4688 50.5888C77.4688 49.2316 78.573 48.1273 79.9302 48.1273H121.023C122.381 48.1273 123.485 49.2316 123.485 50.5888C123.485 51.9461 122.381 53.0501 121.023 53.0501ZM79.9302 48.5419C78.8016 48.5419 77.8833 49.4602 77.8833 50.5888C77.8833 51.7174 78.8016 52.6356 79.9302 52.6356H121.023C122.152 52.6356 123.07 51.7174 123.07 50.5888C123.07 49.4602 122.152 48.5419 121.023 48.5419H79.9302Z" fill="#03A9B7"/>
<path d="M173.28 115.364C173.28 135.213 157.191 151.306 137.342 151.306C117.493 151.306 101.4 135.213 101.4 115.364C101.4 96.7416 115.566 81.4278 133.706 79.6038L134.905 91.3979C122.75 92.6209 113.26 102.885 113.26 115.364C113.26 128.667 124.043 139.449 137.342 139.449C150.641 139.449 161.42 128.667 161.42 115.364C161.42 113.042 161.092 110.799 160.479 108.677L171.875 105.385C172.791 108.552 173.28 111.902 173.28 115.364Z" fill="#E0E0E0"/>
<path d="M166.36 115.363C166.36 131.39 153.368 144.382 137.341 144.382C121.314 144.382 108.322 131.39 108.322 115.363C108.322 99.3361 121.314 86.3438 137.341 86.3438C153.368 86.3438 166.36 99.3361 166.36 115.363Z" fill="white"/>
<g opacity="0.5">
<path d="M166.36 115.363C166.36 131.39 153.368 144.382 137.341 144.382C121.314 144.382 108.322 131.39 108.322 115.363C108.322 99.3361 121.314 86.3438 137.341 86.3438C153.368 86.3438 166.36 99.3361 166.36 115.363Z" fill="#BCE4E8"/>
</g>
<path d="M157.895 115.363C157.895 126.718 148.693 135.923 137.341 135.923C125.989 135.923 116.787 126.718 116.787 115.363C116.787 104.008 125.989 94.8031 137.341 94.8031C148.693 94.8031 157.895 104.008 157.895 115.363Z" fill="white"/>
<path d="M139.687 125.473V128.599H135.716V125.614C132.901 125.446 130.171 124.684 128.481 123.643L130.62 118.799C132.479 119.898 134.955 120.601 137.124 120.601C139.01 120.601 139.687 120.207 139.687 119.531C139.687 117.053 128.79 119.052 128.79 111.702C128.79 108.519 131.099 105.844 135.716 105.196V102.127H139.687V105.14C141.768 105.337 143.797 105.873 145.402 106.774L143.403 111.59C141.459 110.604 139.629 110.125 137.912 110.125C135.968 110.125 135.349 110.688 135.349 111.364C135.349 113.73 146.245 111.758 146.245 119.024C146.245 122.066 144.049 124.713 139.687 125.473Z" fill="#F77D1F"/>
<rect x="187.095" y="19.8834" width="78.1879" height="47.8087" fill="white"/>
<path d="M265.49 67.8994H186.888V19.6761H265.49V67.8994ZM187.302 67.4849H265.076V20.0907H187.302V67.4849Z" fill="#320257"/>
<path d="M194.929 91.9312L189.977 78.2526C184.382 80.2784 180.384 85.6375 180.384 91.9312C180.384 99.964 186.896 106.476 194.929 106.476C202.962 106.476 209.474 99.964 209.474 91.9312C209.474 89.5139 208.88 87.2367 207.837 85.2309L194.929 91.9312Z" fill="#DDF1F3"/>
<path d="M209.772 80.049C207.348 75.3892 202.479 72.2045 196.863 72.2045C195.124 72.2045 193.457 72.5108 191.911 73.0706L196.863 86.7492L209.772 80.049Z" fill="#F77D1F"/>
<rect x="181.108" y="138.542" width="34.4084" height="32.7501" fill="#DDF1F3"/>
<rect x="186.498" y="147.247" width="19.277" height="1.38297" fill="white"/>
<rect x="186.498" y="151.393" width="19.277" height="1.38297" fill="white"/>
<rect x="54.2534" y="75.9432" width="29.9205" height="50.5761" fill="#DDF1F3"/>
<rect x="58.814" y="83.2671" width="19.6224" height="17.9641" fill="white"/>
<rect x="58.9985" y="109.286" width="1" height="26.6035" transform="rotate(-47.5261 58.9985 109.286)" fill="#EBEBFF"/>
<rect x="65.6538" y="84.1146" width="26.6035" height="1" transform="rotate(-42.4714 65.6538 84.1146)" fill="#EBEBFF"/>
<rect x="0.197754" y="96.6" width="68.4373" height="45.0922" fill="white"/>
<path d="M68.8331 141.89H0V96.402H68.8331V141.89ZM0.39582 141.494H68.4373V96.7977H0.39582V141.494Z" fill="#03A9B7"/>
<path d="M7.40869 130.803L11.8307 122.512L20.951 131.08L27.0311 113.392L38.3624 125.828L45.8245 122.788L59.3666 105.1" fill="white"/>
<path d="M21.0425 131.45L11.8859 122.848L7.59139 130.901L7.22559 130.706L11.775 122.175L20.8589 130.709L26.9486 112.994L38.418 125.582L45.6938 122.618L59.2019 104.974L59.5311 105.227L45.9545 122.959L38.3064 126.075L38.2089 125.968L27.1133 113.79L21.0425 131.45Z" fill="#320257"/>
<path d="M13.0052 122.477C13.0052 123.107 12.4948 123.617 11.8651 123.617C11.2355 123.617 10.7251 123.107 10.7251 122.477C10.7251 121.848 11.2355 121.337 11.8651 121.337C12.4948 121.337 13.0052 121.848 13.0052 122.477Z" fill="#F77D1F"/>
<path d="M22.0218 130.872C22.0218 131.502 21.5114 132.012 20.8817 132.012C20.2521 132.012 19.7417 131.502 19.7417 130.872C19.7417 130.243 20.2521 129.732 20.8817 129.732C21.5114 129.732 22.0218 130.243 22.0218 130.872Z" fill="#F77D1F"/>
<path d="M28.24 113.461C28.24 114.09 27.7296 114.601 27.1 114.601C26.4704 114.601 25.96 114.09 25.96 113.461C25.96 112.831 26.4704 112.321 27.1 112.321C27.7296 112.321 28.24 112.831 28.24 113.461Z" fill="#F77D1F"/>
<rect x="19.9067" y="103.788" width="29.0191" height="1" fill="#320257"/>
<path d="M162.914 205.596C161.687 197.556 163.374 189.104 167.591 182.151C171.809 175.198 178.525 169.796 186.221 167.169C181.863 170.219 179.203 175.15 177.346 180.135C175.491 185.121 174.273 190.354 171.982 195.155C169.692 199.956 166.081 204.442 161.074 206.239L162.914 205.596Z" fill="#B0F6BE"/>
<path d="M161.71 205.662C161.536 196.371 159.731 187.112 156.403 178.436C155.221 175.355 153.804 172.28 151.5 169.918C149.195 167.556 145.844 166 142.595 166.577C146.641 169.605 148.737 174.587 149.917 179.501C151.097 184.415 151.552 189.514 153.214 194.286C154.876 199.059 158.055 203.659 162.812 205.365L161.71 205.662Z" fill="#B0F6BE"/>
<path d="M161.075 206.271C158.762 200.042 156.248 193.656 151.596 188.911C146.945 184.166 139.575 181.45 133.483 184.104C138.417 185.223 142.938 188.079 146.066 192.054C148.361 194.969 149.904 198.425 152.264 201.287C154.623 204.15 158.223 206.455 161.869 205.773L161.075 206.271Z" fill="#C3E9EC"/>
<path d="M160.337 205.846C159.389 199.01 158.441 192.063 159.439 185.234C160.438 178.405 163.667 171.587 169.453 167.824C166.25 170.964 165.181 175.721 165.18 180.206C165.178 184.692 166.086 189.136 166.163 193.621C166.24 198.106 165.349 202.87 162.316 206.174L160.337 205.846Z" fill="#C3E9EC"/>
<path d="M163.537 204.85C165.754 199.2 168.118 193.334 172.634 189.279C175.533 186.675 179.226 184.967 183.088 184.445C180.381 186.605 178.685 189.771 177.279 192.937C175.873 196.102 174.659 199.399 172.623 202.201C170.588 205.004 167.528 207.309 164.068 207.457L163.537 204.85Z" fill="#C3E9EC"/>
<path d="M174.797 222.04H149.893L146.054 202.882H178.637L174.797 222.04Z" fill="white"/>
<path d="M174.967 222.247H149.723L145.801 202.675H178.89L174.967 222.247ZM150.063 221.833H174.627L178.384 203.09H146.307L150.063 221.833Z" fill="#07919D"/>
<path d="M219.382 210.52V222.04H204.442L211.282 216.46L211.642 209.44L219.382 210.52Z" fill="#252A32"/>
<rect x="211.45" y="219.822" width="1" height="3.93637" transform="rotate(-46.4339 211.45 219.822)" fill="#1B1B43"/>
<rect x="212.822" y="213.577" width="5.11283" height="1" fill="#1B1B43"/>
<path d="M236.842 211.06L237.382 222.04H222.442L228.742 216.64V209.98L236.842 211.06Z" fill="#252A32"/>
<rect x="228.943" y="219.141" width="1" height="3.09536" transform="rotate(-48.5446 228.943 219.141)" fill="#1B1B43"/>
<rect x="230.44" y="213.784" width="5.04385" height="1" fill="#1B1B43"/>
<path d="M220.887 144.302C221.144 167.257 223.046 189.846 226.684 212.05H239.273C236.655 195.069 235.471 174.449 236.935 147.109L227.844 139.664L220.887 144.302Z" fill="#320257"/>
<path d="M210.935 147.339L205.239 172.673C203.87 178.76 203.775 185.065 204.959 191.191L208.961 211.884H221.55L217.74 184.719L226.85 143.308L210.935 147.339Z" fill="#320257"/>
<path d="M248.992 90.1418L249.666 88.5353C249.666 88.5353 247.23 83.4052 248.008 82.7315C248.785 82.0579 250.028 83.9751 250.028 83.9751C250.028 83.9751 249.666 77.7567 250.858 77.705C251.863 77.6612 251.79 79.4669 251.894 82.1615C251.894 82.1615 252.516 81.3324 253.66 82.189C254.174 81.3324 255.262 81.9023 255.573 82.4205C255.936 82.006 257.439 82.1096 257.232 83.8715C256.969 86.1059 255.936 90.2454 255.936 90.2454L252.619 92.9917L248.992 90.1418Z" fill="#FFBC96"/>
<path d="M222.356 111.595L227.399 111.555C236.245 110.766 243.154 103.581 243.154 103.581L248.992 90.1418L255.936 90.2455L251.86 106.039C251.275 108.308 250.013 110.344 248.244 111.88L233.757 124.447L222.356 111.595Z" fill="#EFDAFF"/>
<path d="M208.534 123.031L210.935 147.339L236.935 147.109L236.037 117.814L222.357 111.595L212.891 115.603L208.534 123.031Z" fill="#EFDAFF"/>
<path d="M192.433 125.391C192.008 125.014 191.474 124.785 190.908 124.738C188.034 124.498 179.049 123.805 179.136 124.501C179.24 125.331 186.08 128.44 186.08 128.44C187.543 130.086 189.006 131.732 190.469 133.378L194.488 127.215L192.433 125.391Z" fill="#FFBC96"/>
<path d="M212.031 113.934C210.178 114.258 208.587 115.435 207.734 117.11L200.072 132.171L194.488 127.215L190.469 133.378C190.958 133.929 191.447 134.479 191.936 135.029C194.107 137.472 196.638 140.755 200.027 141.466C201.754 141.829 203.362 141.111 204.6 139.923C205.507 139.052 206.318 137.976 206.966 136.897L210.021 131.86L219.763 112.583L212.031 113.934Z" fill="#EFDAFF"/>
<rect x="208.333" y="137.983" width="1" height="15.0286" transform="rotate(-5.55754 208.333 137.983)" fill="#C4F5FA"/>
<path d="M236.193 122.27L233.757 124.447L236.348 128.748L236.193 122.27Z" fill="#C4F5FA"/>
<path d="M252.792 85.2535C251.815 85.2535 251.739 83.972 251.738 82.1616H252.049C252.05 84.2927 252.223 84.9426 252.792 84.9426C252.906 84.9426 253.004 84.8972 253.091 84.8038C253.368 84.5065 253.475 83.8123 253.508 83.1888C253.487 82.7381 253.498 82.3458 253.504 82.1827L253.815 82.1783C253.817 82.2166 253.845 82.6354 253.821 83.1515C253.864 83.9957 254.007 84.8301 254.288 84.9146C254.446 84.9618 254.582 84.9416 254.705 84.853C255.041 84.6112 255.229 83.9274 255.327 83.3165C255.336 83.0541 255.364 82.7496 255.419 82.3965L255.728 82.4255C255.727 82.4605 255.715 82.8149 255.65 83.2611C255.627 83.9075 255.701 84.5338 255.962 84.6437C256.156 84.7253 256.316 84.7247 256.451 84.6421C256.807 84.4246 256.936 83.6921 256.956 83.4281L257.266 83.4515C257.262 83.4966 257.176 84.5632 256.613 84.9074C256.389 85.0441 256.13 85.0519 255.841 84.9305C255.769 84.9 255.54 84.7675 255.412 84.2821C255.29 84.6298 255.121 84.937 254.887 85.1052C254.683 85.2521 254.452 85.2881 254.199 85.2123C253.925 85.1302 253.756 84.7814 253.653 84.3453C253.576 84.616 253.469 84.8542 253.318 85.0157C253.171 85.1736 252.994 85.2535 252.792 85.2535Z" fill="#D28572"/>
<path d="M220.163 117.494C217.954 117.673 216.022 116.027 215.844 113.821L215.798 113.262L215.168 105.443L220.039 105.054L223.165 104.801L223.836 113.175C224.015 115.384 222.369 117.316 220.163 117.494Z" fill="#FFBC96"/>
<path d="M221.598 107.69C220.081 110.364 217.908 112.288 215.798 113.262L215.168 105.443L220.039 105.053L221.598 107.69Z" fill="#1B1B43"/>
<path d="M223.186 99.5026L222.221 107.657C222.221 107.657 219.111 110.629 214.551 110.488C212.889 110.439 211.91 108.863 211.338 106.861C211.102 106.024 210.936 105.116 210.82 104.208C210.439 101.206 210.613 98.2589 210.613 98.2589L217.66 95.9125L223.186 99.5026Z" fill="#FFBC96"/>
<path d="M222.115 102.855C221.381 100.239 220.063 98.9231 218.28 98.6402C212.614 101.715 208.936 99.8838 206.258 96.4638C212.822 97.7421 215.689 88.4145 221.977 94.6329C226.64 96.0493 226.554 100.506 223.912 104.133L222.115 102.855Z" fill="#1B1B43"/>
<path d="M225.041 103.855C224.8 105.086 223.74 105.915 222.673 105.706C221.605 105.498 220.935 104.331 221.175 103.1C221.416 101.869 222.476 101.04 223.543 101.249C224.611 101.457 225.281 102.624 225.041 103.855Z" fill="#FFBC96"/>
<path d="M223.835 102.633C223.509 102.688 223.299 102.934 223.142 103.213C222.987 103.498 222.886 103.813 222.824 104.154L222.703 104.161C222.652 103.979 222.651 103.785 222.682 103.599C222.713 103.412 222.777 103.229 222.872 103.061C222.968 102.895 223.095 102.738 223.265 102.627C223.431 102.516 223.651 102.458 223.843 102.512L223.835 102.633Z" fill="#1B1B43"/>
<path d="M212.303 103.183C212.303 103.536 212.133 103.822 211.923 103.822C211.714 103.822 211.543 103.536 211.543 103.183C211.543 102.83 211.714 102.544 211.923 102.544C212.133 102.544 212.303 102.83 212.303 103.183Z" fill="#1B1B43"/>
<path d="M215.444 102.922C215.444 103.305 215.26 103.615 215.033 103.615C214.805 103.615 214.621 103.305 214.621 102.922C214.621 102.54 214.805 102.23 215.033 102.23C215.26 102.23 215.444 102.54 215.444 102.922Z" fill="#1B1B43"/>
<path d="M213.167 103.702C213.168 103.825 213.119 103.945 213.06 104.049C212.998 104.152 212.923 104.24 212.849 104.321C212.702 104.482 212.565 104.628 212.533 104.781C212.492 104.938 212.553 105.092 212.673 105.246C212.794 105.399 212.957 105.536 213.114 105.689L213.047 105.79C212.845 105.705 212.645 105.598 212.471 105.43C212.385 105.346 212.308 105.242 212.257 105.116C212.208 104.989 212.197 104.843 212.232 104.71C212.266 104.575 212.336 104.458 212.417 104.367C212.496 104.275 212.581 104.199 212.664 104.131C212.825 103.99 212.98 103.87 213.047 103.683L213.167 103.702Z" fill="#1B1B43"/>
<path d="M213.466 107.156C213.903 107.058 214.309 106.92 214.672 106.694C214.853 106.583 215.025 106.454 215.189 106.312C215.354 106.17 215.511 106.016 215.674 105.86L215.773 105.931C215.569 106.346 215.242 106.712 214.833 106.958C214.424 107.206 213.936 107.323 213.473 107.277L213.466 107.156Z" fill="#1B1B43"/>
<path d="M214.533 101.207C214.444 101.675 215.914 101.825 216.179 101.872C216.397 101.91 216.707 101.934 216.753 101.604C216.81 101.195 216.364 101.151 216.112 101.097C215.871 101.044 214.617 100.765 214.533 101.207Z" fill="#1B1B43"/>
<path d="M212.488 101.494C212.481 101.947 211.312 101.992 211.098 102.018C210.922 102.04 210.676 102.043 210.695 101.725C210.718 101.331 211.072 101.319 211.277 101.284C211.473 101.25 212.495 101.067 212.488 101.494Z" fill="#1B1B43"/>
<g opacity="0.199997">
<path d="M219.481 104.315C219.481 105.145 218.808 105.817 217.978 105.817C217.148 105.817 216.475 105.145 216.475 104.315C216.475 103.485 217.148 102.812 217.978 102.812C218.808 102.812 219.481 103.485 219.481 104.315Z" fill="#FE5B52"/>
</g>
<g opacity="0.199997">
<path d="M211.944 105.663C211.944 106.156 211.708 106.591 211.339 106.861C211.102 106.023 210.936 105.116 210.82 104.208C211.467 104.378 211.944 104.966 211.944 105.663Z" fill="#FE5B52"/>
</g>
<rect x="75.9917" y="154.086" width="28.8393" height="1.94129" fill="#07919D"/>
<path d="M104.83 154.087H80.4746L89.6985 131.598H114.054L104.83 154.087Z" fill="white"/>
<path d="M104.969 154.295H80.1655L89.5596 131.39H114.363L104.969 154.295ZM80.7838 153.88H104.691L113.745 131.805H89.8377L80.7838 153.88Z" fill="#07919D"/>
<path d="M102.727 152.197H83.5864L90.8354 134.523H109.976L102.727 152.197Z" fill="#DDF1F3"/>
<rect x="94.7188" y="156.649" width="1" height="65.4964" fill="#1B1B43"/>
<rect x="71.665" y="156.03" width="46.5224" height="3.70018" fill="#DDF1F3"/>
<rect x="33.708" y="184.161" width="1" height="37.9845" fill="#1B1B43"/>
<path d="M45.2924 185.923H22.5381C23.0211 183.613 25.0578 181.958 27.4178 181.958H40.4127C42.7727 181.958 44.8093 183.613 45.2924 185.923Z" fill="#DDF1F3"/>
<path d="M39.8221 222.035H28.0088C28.0088 220.599 29.1732 219.434 30.6096 219.434H37.2213C38.6576 219.434 39.8221 220.599 39.8221 222.035Z" fill="#D1D1FF"/>
<path d="M51.4696 127.802C52.0516 128.639 52.8859 129.823 52.9783 130.859C53.1122 132.364 50.7038 131.309 50.6753 131.439L51.4696 127.802Z" fill="#D28572"/>
<rect x="40.1763" y="129.573" width="7.61527" height="11.1602" fill="#FFBC96"/>
<path d="M47.7917 131.488V139.455C45.3921 137.948 43.3178 135.709 41.5249 133.125L47.7917 131.488Z" fill="#1B1B43"/>
<path d="M52.0719 128.48C51.8347 132.335 50.3515 136.696 46.3034 135.62C43.1237 134.775 39.624 132.098 39.624 128.235C39.624 124.373 42.2973 121.242 45.595 121.242C47.656 121.242 50.251 122.242 51.4723 124.174C52.205 125.333 52.1754 126.799 52.0719 128.48Z" fill="#FFBC96"/>
<path d="M45.3324 127.361C46.4104 124.502 48.8782 124.221 48.8782 124.221C48.8782 124.221 54.5918 129.873 54.238 124.033C53.9567 119.393 49.4216 119.832 49.4216 119.832C47.206 116.947 43.6528 118.076 42.357 119.748C41.0611 121.42 41.5209 120.459 38.4693 121.546C35.4177 122.633 37.048 127.273 36.5046 127.607C32.4497 127.607 33.2021 131.62 33.2021 131.62L42.8013 134.751L45.1137 128.439L45.3324 127.361Z" fill="#1B1B43"/>
<path d="M46.3334 127.689C46.9269 128.717 46.7666 129.92 45.9749 130.377C45.1834 130.834 44.0607 130.371 43.4672 129.343C42.8737 128.315 43.034 127.111 43.8257 126.654C44.6171 126.198 45.74 126.66 46.3334 127.689Z" fill="#FFBC96"/>
<path d="M45.1071 128.927C44.9722 128.667 44.8588 128.413 44.6768 128.236C44.5878 128.147 44.4843 128.074 44.3669 128.01C44.2494 127.947 44.1186 127.893 43.9844 127.83L44.0049 127.722C44.1572 127.714 44.3116 127.732 44.4629 127.783C44.6143 127.833 44.7611 127.92 44.8765 128.04C44.9921 128.159 45.0758 128.302 45.1281 128.45C45.1811 128.597 45.2095 128.748 45.2138 128.9L45.1071 128.927Z" fill="#1B1B43"/>
<path d="M41.1916 115.032C42.9713 114.948 44.4882 116.442 44.5796 118.37C44.6709 120.299 43.3022 121.93 41.5226 122.014C39.7428 122.099 38.2261 120.604 38.1347 118.676C38.0433 116.748 39.412 115.116 41.1916 115.032Z" fill="#1B1B43"/>
<g opacity="0.199997">
<path d="M50.2115 130.665C50.2115 131.466 49.562 132.116 48.7605 132.116C47.9593 132.116 47.3096 131.466 47.3096 130.665C47.3096 129.863 47.9593 129.214 48.7605 129.214C49.562 129.214 50.2115 129.863 50.2115 130.665Z" fill="#FE5B52"/>
</g>
<path d="M54.4607 168.183L30.0723 165.073L34.6697 140.834C34.9931 139.139 36.1207 137.7 37.6918 136.987C39.0019 136.39 40.4984 136.353 41.8416 136.879L50.1535 140.573C51.7537 141.282 52.8564 142.787 53.0554 144.524L53.5238 152.442L54.0586 161.417L54.4607 168.183Z" fill="#FFA121"/>
<path d="M76.7779 150.771L83.2332 148.873C83.6984 148.737 84.1982 148.812 84.6021 149.08C86.369 150.253 91.0724 153.572 89.8849 154.929C89.2921 155.606 83.8945 154.018 83.8945 154.018L76.0791 156.199L76.7779 150.771Z" fill="#FFBC96"/>
<path d="M49.4172 140.269L50.389 140.688C52.3896 141.55 54.1823 142.831 55.6467 144.443L63.6504 153.258L76.7781 150.771L78.5055 157.818L62.0105 162.974C60.708 163.206 59.3773 162.756 58.4821 161.782L46.5845 148.836L49.4172 140.269Z" fill="#FFA121"/>
<path d="M53.5767 204.845L48.3154 215.094L61.6065 221.917L58.0698 213.829L60.9557 207.419L53.5767 204.845Z" fill="#252A32"/>
<rect x="54.3955" y="214.63" width="3.93636" height="1" transform="rotate(-16.4056 54.3955 214.63)" fill="#1B1B43"/>
<path d="M61.8539 211.58L49.8135 207.088L58.0587 181.432C59.4762 177.633 63.8423 175.753 67.8106 177.234C71.7791 178.715 73.8471 182.995 72.4297 186.794L61.8539 211.58Z" fill="#022326"/>
<path d="M73.5308 209.846L74.7061 222.04H89.6461L82.8061 216.46L81.2001 209.431L73.5308 209.846Z" fill="#252A32"/>
<rect x="79.6675" y="217.279" width="4.04357" height="1" transform="rotate(-28.8721 79.6675 217.279)" fill="#1B1B43"/>
<path d="M84.3092 211.297L71.2506 213.369L62.3086 187.074L60.6794 182.277L38.4715 182.456C32.9786 182.58 28.6091 177.875 29.1481 172.403L30.0725 165.073L52.0441 167.838L66.4832 169.426C72.4943 170.463 74.3391 174.102 75.5911 178.779L84.3092 211.297Z" fill="#022326"/>
<path d="M62.3084 187.074L60.6792 182.277L63.6847 182.174C63.9625 183.981 63.2453 186 62.3084 187.074Z" fill="#3E1E58"/>
<rect x="8.85938" y="221.833" width="251.637" height="1" fill="#252A32"/>
</svg>
